<?xml version="1.0" encoding="UTF-8"?>
<svg width="10px" height="12px" viewBox="0 0 10 12" version="1.1" xmlns="http://www.w3.org/2000/svg" xmlns:xlink="http://www.w3.org/1999/xlink">
    <!-- Generator: Sketch 55.2 (78181) - https://sketchapp.com -->
    <title>delete</title>
    <desc>Created with Sketch.</desc>
    <g id="Page-1" stroke="none" stroke-width="1" fill="none" fill-rule="evenodd">
        <g id="poll-list" transform="translate(-445.000000, -266.000000)" fill="#000000" fill-rule="nonzero">
            <g id="delete" transform="translate(445.000000, 266.000000)">
                <polygon id="路径" points="7.77777778 4.48677699 7.23381441 4.44444444 6.66666667 9.95769042 7.21063004 10"></polygon>
                <rect id="矩形" x="5.29239766" y="4.44444444" width="1" height="5.55555556"></rect>
                <polygon id="路径" points="3.33333333 9.95769042 2.76618614 4.44444444 2.22222222 4.48677699 2.78939576 10"></polygon>
                <path d="M9.74994331,1.48771622 L7.02793204,1.48771622 C6.97360231,0.660304947 6.08466464,0 5,0 C3.91509411,0 3.02615644,0.660304947 2.9718267,1.48771622 L0.250032569,1.48771622 C0.111843978,1.48771622 0,1.59344075 0,1.72411945 L0,2.89990842 C0,3.03056431 0.111843978,3.13631164 0.250032569,3.13631164 L0.697239606,3.13631164 L1.44354967,10.8961721 C1.45527447,11.0178409 1.56321018,11.1111111 1.69261724,11.1111111 L8.30711739,11.1111111 C8.43654857,11.1111111 8.54448428,11.0178409 8.55618495,10.8961721 L9.30251914,3.13631164 L9.74996743,3.13631164 C9.88818015,3.13631164 10,3.03056431 10,2.89990842 L10,1.72411945 C10,1.59341794 9.88818015,1.48771622 9.74994331,1.48771622 Z M8.07882154,10.6383047 L1.92093721,10.6383047 L1.19940363,3.13679065 L8.80037925,3.13679065 L8.07882154,10.6383047 Z M5,0.472806444 C5.80626095,0.472806444 6.46871215,0.921160529 6.52634703,1.48769341 L3.47341172,1.48769341 C3.5310466,0.921160529 4.19373905,0.472806444 5,0.472806444 Z M9.49991074,2.6635052 L0.500065138,2.6635052 L0.500065138,1.96052267 L9.49991074,1.96052267 L9.49991074,2.6635052 Z" id="形状"></path>
            </g>
        </g>
    </g>
</svg>