<?xml version="1.0" encoding="UTF-8"?>
<svg width="10px" height="12px" viewBox="0 0 10 12" version="1.1" xmlns="http://www.w3.org/2000/svg" xmlns:xlink="http://www.w3.org/1999/xlink">
    <!-- Generator: Sketch 55.2 (78181) - https://sketchapp.com -->
    <title>powerOff</title>
    <desc>Created with Sketch.</desc>
    <g id="Page-1" stroke="none" stroke-width="1" fill="none" fill-rule="evenodd">
        <g id="poll-list" transform="translate(-421.000000, -266.000000)" fill="#000000" fill-rule="nonzero">
            <g id="powerOff" transform="translate(421.000000, 266.000000)">
                <path d="M8.50073446,2.75497175 C8.33525424,2.58949153 8.06700565,2.58949153 7.90146893,2.75497175 C7.7359887,2.92045198 7.7359887,3.18870056 7.90146893,3.35418079 C8.67903955,4.13175141 9.10723164,5.16559322 9.10723164,6.26525424 C9.10723164,7.36485876 8.67903955,8.39864407 7.90146893,9.17615819 C7.09903955,9.97864407 6.04514124,10.3798305 4.99096045,10.3797175 C3.93677966,10.379661 2.88237288,9.97836158 2.07983051,9.17581921 C0.475028249,7.57101695 0.47519774,4.95971751 2.08011299,3.35480226 C2.24559322,3.18932203 2.24559322,2.92101695 2.08011299,2.75559322 C1.91463277,2.59011299 1.64638418,2.59011299 1.48084746,2.75559322 C-0.454463277,4.69090395 -0.454632768,7.83988701 1.48056497,9.77508475 C2.44847458,10.7429944 3.71966102,11.2268362 4.99101695,11.2268362 C6.2620339,11.2268362 7.53322034,10.7429944 8.50079096,9.77542373 C9.43836158,8.8379096 9.95468927,7.59129944 9.95468927,6.26531073 C9.95468927,4.93926554 9.43836158,3.69259887 8.50073446,2.75497175 Z" id="路径"></path>
                <path d="M4.99050847,5.48949153 C5.22457627,5.48949153 5.41423729,5.29977401 5.41423729,5.06576271 L5.41423729,0.423728814 C5.41423729,0.189717514 5.22457627,0 4.99050847,0 C4.75644068,0 4.56677966,0.189717514 4.56677966,0.423728814 L4.56677966,5.06576271 C4.56677966,5.29983051 4.75644068,5.48949153 4.99050847,5.48949153 Z" id="路径"></path>
            </g>
        </g>
    </g>
</svg>