<?xml version="1.0" encoding="UTF-8"?>
<svg width="10px" height="10px" viewBox="0 0 10 10" version="1.1" xmlns="http://www.w3.org/2000/svg" xmlns:xlink="http://www.w3.org/1999/xlink">
    <!-- Generator: Sketch 55.2 (78181) - https://sketchapp.com -->
    <title>result</title>
    <desc>Created with Sketch.</desc>
    <g id="Page-1" stroke="none" stroke-width="1" fill="none" fill-rule="evenodd">
        <g id="poll-list" transform="translate(-395.000000, -267.000000)" fill="#000000" fill-rule="nonzero">
            <g id="result" transform="translate(395.000000, 267.000000)">
                <path d="M3.47177419,5.08064516 L2.50403226,5.08064516 C2.23790323,5.08064516 2.02016129,5.2983871 2.02016129,5.56451613 L2.02016129,7.5 C2.02016129,7.76612903 2.23790323,7.98387097 2.50403226,7.98387097 L3.47177419,7.98387097 C3.73790323,7.98387097 3.95564516,7.76612903 3.95564516,7.5 L3.95564516,5.56451613 C3.95564516,5.2983871 3.73790323,5.08064516 3.47177419,5.08064516 Z" id="路径"></path>
                <path d="M5.16532258,3.70967742 C4.89919355,3.70967742 4.68145161,3.92741935 4.68145161,4.19354839 L4.68145161,7.5 C4.68145161,7.76612903 4.89919355,7.98387097 5.16532258,7.98387097 L6.13306452,7.98387097 C6.39919355,7.98387097 6.61693548,7.76612903 6.61693548,7.5 L6.61693548,4.19354839 C6.61693548,3.92741935 6.39919355,3.70967742 6.13306452,3.70967742 L5.16532258,3.70967742 Z" id="路径"></path>
                <path d="M8.79435484,3.70967742 L7.8266129,3.70967742 C7.56048387,3.70967742 7.34274194,3.92741935 7.34274194,4.19354839 L7.34274194,7.5 C7.34274194,7.76612903 7.56048387,7.98387097 7.8266129,7.98387097 L8.79435484,7.98387097 C9.06048387,7.98387097 9.27822581,7.76612903 9.27822581,7.5 L9.27822581,4.19354839 C9.27822581,3.92741935 9.06048387,3.70967742 8.79435484,3.70967742 Z" id="路径"></path>
                <path d="M0.528225806,10 L9.55241935,10 C9.81854839,10 9.99596774,9.74193548 9.99596774,9.47580645 L9.99596774,9.31451613 C9.99596774,9.0483871 9.81854839,8.7983871 9.55241935,8.7983871 L1.6733871,8.7983871 C1.40725806,8.7983871 1.21370968,8.61290323 1.21370968,8.33879032 L1.21370968,0.443548387 C1.21370968,0.177419355 0.963709677,0 0.697580645,0 L0.536290323,0 C0.262096774,0 0.00403225806,0.177419355 0.00403225806,0.443548387 L0.00403225806,9.46774194 C0.00403225806,9.74193548 0.262096774,10 0.528225806,10 Z" id="路径"></path>
            </g>
        </g>
    </g>
</svg>