<?xml version="1.0" encoding="UTF-8"?>
<svg width="291px" height="368px" viewBox="0 0 291 368" version="1.1" xmlns="http://www.w3.org/2000/svg" xmlns:xlink="http://www.w3.org/1999/xlink">
    <!-- Generator: Sketch 59.1 (86144) - https://sketch.com -->
    <title>file</title>
    <desc>Created with Sketch.</desc>
    <g id="Page-1" stroke="none" stroke-width="1" fill="none" fill-rule="evenodd">
        <g id="file" fill="#000000" fill-rule="nonzero">
            <path d="M290.6,81.6 C290.2,81.6 290.2,81.2 289.8,80.8 C289.4,80.4 289.4,80 289,79.6 L220.2,2.4 C219.8,2 219,1.6 218.6,1.2 C218.2,1.2 218.2,0.8 217.8,0.8 C217,0.4 215.8,0 214.6,0 L45.8,0 C21,0 0.6,20.4 0.6,45.2 L0.6,322.4 C0.6,347.2 21,367.6 45.8,367.6 L245.8,367.6 C270.6,367.6 291,347.2 291,322.4 L291,84.4 C291,83.6 290.6,82.4 290.6,81.6 Z M222.2,27.2 L266.6,77.2 L222.2,77.2 L222.2,27.2 Z M275.8,322 C275.8,338.8 262.6,352.4 245.8,352.4 L45.8,352.4 C29,352.4 15.8,338.8 15.8,322.4 L15.8,44.8 C15.8,28 29.4,14.8 45.8,14.8 L207,14.8 L207,84.4 C207,88.4 210.2,92 214.6,92 L275.8,92 L275.8,322 Z" id="Shape"></path>
            <path d="M54.6,92 L121.4,92 C125.4,92 129,88.8 129,84.4 C129,80 125.8,76.8 121.4,76.8 L54.6,76.8 C50.6,76.8 47,80 47,84.4 C47,88.8 50.6,92 54.6,92 Z" id="Path"></path>
            <path d="M121.4,275.6 L54.6,275.6 C50.6,275.6 47,278.8 47,283.2 C47,287.2 50.2,290.8 54.6,290.8 L121.4,290.8 C125.4,290.8 129,287.6 129,283.2 C129,279.2 125.4,275.6 121.4,275.6 Z" id="Path"></path>
            <path d="M47,134.8 C47,138.8 50.2,142.4 54.6,142.4 L233,142.4 C237,142.4 240.6,139.2 240.6,134.8 C240.6,130.8 237.4,127.2 233,127.2 L54.6,127.2 C50.6,127.2 47,130.4 47,134.8 Z" id="Path"></path>
            <path d="M233,164.8 L54.6,164.8 C50.6,164.8 47,168 47,172.4 C47,176.4 50.2,180 54.6,180 L233,180 C237,180 240.6,176.8 240.6,172.4 C240.6,168 237.4,164.8 233,164.8 Z" id="Path"></path>
            <path d="M233,202 L54.6,202 C50.6,202 47,205.2 47,209.6 C47,213.6 50.2,217.2 54.6,217.2 L233,217.2 C237,217.2 240.6,214 240.6,209.6 C240.6,205.2 237.4,202 233,202 Z" id="Path"></path>
            <path d="M233,239.2 L54.6,239.2 C50.6,239.2 47,242.4 47,246.8 C47,250.8 50.2,254.4 54.6,254.4 L233,254.4 C237,254.4 240.6,251.2 240.6,246.8 C240.6,242.8 237.4,239.2 233,239.2 Z" id="Path"></path>
        </g>
    </g>
</svg>