<?xml version="1.0" encoding="UTF-8"?>
<svg width="507px" height="575px" viewBox="0 0 507 575" version="1.1" xmlns="http://www.w3.org/2000/svg" xmlns:xlink="http://www.w3.org/1999/xlink">
    <!-- Generator: Sketch 52.4 (67378) - http://www.bohemiancoding.com/sketch -->
    <title>graphic</title>
    <desc>Created with Sketch.</desc>
    <g id="Page-1" stroke="none" stroke-width="1" fill="none" fill-rule="evenodd">
        <g id="Home" transform="translate(-795.000000, -449.000000)">
            <g id="graphic" transform="translate(795.000000, 449.000000)">
                <g>
                    <g id="boy-12" transform="translate(0.000000, 119.000000)">
                        <path d="M75.9135897,91.5398442 C75.1414979,88.9724236 73.1621165,86.8996485 70.5597945,86.0342141 L62.3460525,83.3020852 C61.2902608,82.9508115 60.1338181,83.4852679 59.7536391,84.5213953 L53.3688238,82.3976204 C51.665059,81.8308988 50.5161782,80.2400192 50.5161782,78.4480028 L50.5161782,71.7342514 L59.5020118,67.998 C64.1663742,66.0589691 67.2044157,61.5114056 67.2044157,56.4691966 L67.2044157,54.3875746 C70.6607062,54.3875746 73.4625048,51.591696 73.4625048,48.1427085 C73.4625048,44.693721 70.6607062,41.8978424 67.2044157,41.8978424 L67.2044157,29.4081102 C67.2044157,23.6599711 62.5345775,19 56.7742672,19 L19.2257328,19 C13.4654225,19 8.7955843,23.6599711 8.7955843,29.4081102 L8.7955843,41.8978424 C5.33929385,41.8978424 2.53749522,44.693721 2.53749522,48.1427085 C2.53749522,51.591696 5.33929385,54.3875746 8.7955843,54.3875746 L8.7955843,56.4691966 C8.7955843,61.5111454 11.8336258,66.0587089 16.4977274,67.9982602 L25.4838218,71.7347718 L25.4838218,78.448263 C25.4838218,80.2402794 24.3346802,81.831159 22.6311762,82.3978806 L16.2463609,84.5216555 C15.8661819,83.4855281 14.7097392,82.9510717 13.6539475,83.3023454 L5.44020554,86.0344743 C2.83788349,86.8999087 0.858241315,88.972944 0.0864103286,91.5401044 C-0.110719477,92.1960755 0.0371278771,92.8991434 0.451465525,93.4281356 L0.451465525,116.836756 C0.451465525,119.136168 2.31924436,121 4.62352491,121 L15.0536734,121 L60.9463266,121 L71.3764751,121 C73.6807556,121 75.5485345,119.136168 75.5485345,116.836756 L75.5485345,93.4281356 C75.9628721,92.8988832 76.1107195,92.1958153 75.9135897,91.5398442 Z" id="Path" fill="#C38762"></path>
                        <path d="M51,71 L26.0175899,71.0002669 L26.0175899,77.887685 C26.0175899,79.4073962 25.2324656,80.7845595 24,81.5450825 C41.4163831,84.6317541 51,71 51,71 Z" id="Path" fill="#A46D4D"></path>
                        <path d="M75.9128111,91.3886795 C75.1407352,88.8080623 73.1613946,86.724633 70.5591261,85.8547503 L62.3455533,83.1085781 C61.2723131,82.749745 60.0929484,83.3097025 59.7331157,84.3856789 C56.6831423,93.5019243 48.1162555,100.076522 38.0000021,100.076522 C27.8837486,100.076522 19.3168618,93.5019243 16.2668884,84.3854174 C15.9070557,83.309441 14.727691,82.7494834 13.6544508,83.1083166 L5.44087801,85.8544887 C2.83860955,86.7243715 0.859008135,88.8080623 0.0871930405,91.3884179 C-0.146958971,92.1712078 0.100491206,93.0240904 0.709338586,93.5667863 L12.2526677,103.856301 C14.0346219,105.444896 15.0541479,107.721604 15.0541479,110.112604 L15.0541479,121 L60.9458562,121 L60.9458562,110.112604 C60.9458562,107.721604 61.9653822,105.444896 63.7470757,103.856824 L75.2904048,93.5673094 C75.8995129,93.0243519 76.1469631,92.1714693 75.9128111,91.3886795 Z" id="Path" fill="#FF8C51"></path>
                        <path d="M62.1067203,83.1069861 C61.0440257,82.7525607 59.8762493,83.3056399 59.5196941,84.3683994 C56.4996897,93.3729221 48.0172389,99.8667595 38.0001291,99.8667595 C27.9830193,99.8667595 19.5008267,93.3729221 16.480564,84.3683994 C16.124267,83.3056399 14.9564907,82.7525607 13.8935379,83.1069861 L12,83.7385969 C14.9464214,95.3767687 25.4527941,104 38.0001291,104 C50.5474641,104 61.054095,95.3765104 64,83.7385969 L62.1067203,83.1069861 Z" id="Path" fill="#FF7941"></path>
                        <path d="M67.7352941,41.8148148 L67.7352941,29.3703704 C67.7352941,23.6430741 63.0605184,19 57.2941176,19 L19.7058824,19 C13.9394816,19 9.26470588,23.6430741 9.26470588,29.3703704 L9.26470588,41.8148148 C5.80476103,41.8148148 3,44.6005556 3,48.037037 C3,51.4735185 5.80476103,54.2592593 9.26470588,54.2592593 L9.26470588,56.3333333 C9.26470588,61.357 12.3059596,65.8880741 16.9749926,67.8205926 L30.467864,73.4045185 C33.0129007,74.4578889 35.7427463,75 38.499739,75 C41.2567316,75 43.9863162,74.4578889 46.5313529,73.4045185 L60.0250074,67.8203333 C64.6940404,65.8883333 67.7352941,61.3572593 67.7352941,56.3333333 L67.7352941,54.2592593 C71.195239,54.2592593 74,51.4735185 74,48.037037 C74,44.6005556 71.195239,41.8148148 67.7352941,41.8148148 Z" id="Path" fill="#D29771"></path>
                        <path d="M19.9437741,63.3855913 C18.2795892,61.5807289 17.3774069,59.1990897 17.3774069,56.7309728 L17.3774069,19 C12.6901155,19.9626798 9.16174583,24.1530769 9.16174583,29.1783851 L9.16174583,41.6436217 C5.75866496,41.6436217 3,44.4340169 3,47.87624 C3,51.3184632 5.75866496,54.1088583 9.16174583,54.1088583 L9.16174583,56.1863978 C9.16174583,61.218458 12.1530167,65.7571026 16.7453145,67.69285 L30.0161746,73.2861055 C30.6657253,73.5598213 31.3283697,73.7956221 32,74 C26.1353017,69.6600201 22.2310655,65.8664331 19.9437741,63.3855913 Z" id="Path" fill="#C38762"></path>
                        <path d="M23,50 C21.9,50 21,49.1 21,48 L21,46 C21,44.9 21.9,44 23,44 C24.1,44 25,44.9 25,46 L25,48 C25,49.1 24.1,50 23,50 Z" id="Path" fill="#623F33"></path>
                        <path d="M53,50 C51.9,50 51,49.1 51,48 L51,46 C51,44.9 51.9,44 53,44 C54.1,44 55,44.9 55,46 L55,48 C55,49.1 54.1,50 53,50 Z" id="Path" fill="#623F33"></path>
                        <path d="M38.5000576,64 C34.7666121,64 31.2743981,63.1329666 28.9190436,61.6206128 C27.9604172,61.0052668 27.7110483,59.7723454 28.3643947,58.867658 C29.0153787,57.9639615 30.322859,57.7286239 31.2814854,58.3442176 C32.9323072,59.4037323 35.6310033,60.0366667 38.5000576,60.0366667 C41.3691119,60.0366667 44.067808,59.4037323 45.7186298,58.3442176 C46.6793562,57.7268898 47.9836865,57.9629706 48.6357205,58.867658 C49.2888044,59.7723454 49.039698,61.0052668 48.0810716,61.6206128 C45.7259796,63.1329666 42.2335032,64 38.5000576,64 Z" id="Path" fill="#A46D4D"></path>
                        <path d="M57.4642857,19 L19.5357143,19 C13.7171027,19 9,23.6807614 9,29.4545455 L9,42 L11.1071429,42 C13.4347455,42 15.3214286,40.1278523 15.3214286,37.8181818 L15.3214286,33.6363636 C15.3214286,31.3269545 17.2081116,29.4545455 19.5357143,29.4545455 L57.4642857,29.4545455 C59.7918884,29.4545455 61.6785714,31.3269545 61.6785714,33.6363636 L61.6785714,37.8181818 C61.6785714,40.1278523 63.5652545,42 65.8928571,42 L68,42 L68,29.4545455 C68,23.6807614 63.2831607,19 57.4642857,19 Z" id="Path" fill="#9A6C52"></path>
                        <path d="M52.4176025,29 L21.2362671,29 C17.7920287,29 15,26.2178125 15,22.7857143 L15,20.3020714 C15,12.5370625 21.1312899,6.1606875 28.91623,5.81657143 C42.5702769,5.21326786 62.0404224,3.71070536 66.9688923,0 C66.9688923,0 77.0162981,29 52.4176025,29 Z" id="Path" fill="#6E4439"></path>
                        <path d="M34.98178,20.1140893 C53.7933,17.1061161 67,3.67186607 67,0 C62.06858,3.71070536 42.58678,5.21326786 28.92456,5.81657143 C21.13522,6.1606875 15,12.5370625 15,20.3020714 L15,22.7857143 C15,26.2178125 17.7937,29 21.24,29 L27.48,29 C27.48,24.6160804 30.63536,20.8090536 34.98178,20.1140893 Z" id="Path" fill="#5E342E"></path>
                    </g>
                    <g id="girl-3" transform="translate(143.000000, 97.000000)">
                        <path d="M76,91.509434 C76,91.509434 62.6765158,97 38.0001131,97 C13.3237103,97 0,91.509434 0,91.509434 L4.78549766,31.0068278 C6.17068402,13.4962689 20.6246648,0 37.9926488,0 L38.007125,0 C55.3753352,0 69.829316,13.4962689 71.2142761,31.0068278 L76,91.509434 Z" id="Path" fill="#E69F5F"></path>
                        <path d="M48,1.46211396 C44.9107175,0.518089925 41.6424716,0 38.2590151,0 L38.2446707,0 C20.7613536,0 6.21135219,13.523981 4.81721328,31.0704947 L0,91.6973319 C0,91.6973319 6.57474361,94.3817713 19.0045063,96 L48,1.46211396 Z" id="Path" fill="#E09156"></path>
                        <path d="M72.9516637,94.5617713 L72.6043893,93.366234 C72.4366691,92.7887074 71.8768429,92.4346436 71.3010866,92.5082926 L70.0872196,83.3588989 C69.6885141,80.353016 67.8338053,77.7412234 65.135261,76.3851223 L61.2137467,74.4144415 C60.6295703,74.1207606 59.959827,74.3812766 59.6739971,74.9382181 L51.9131219,72.0681968 C50.4261689,71.5700372 49.4234883,70.1716223 49.4234883,68.5964043 L49.4234883,62.694883 L57.2658341,59.4106436 C61.3366354,57.7061968 63.9880724,53.7087979 63.9880724,49.2765957 L63.9880724,47.4468085 C67.0045343,47.4468085 69.4497915,44.9891755 69.4497915,41.9574468 C69.4497915,38.9257181 67.0045343,36.4680851 63.9880724,36.4680851 L63.9880724,32.8085106 C63.9880724,27.7557819 59.9124921,20 54.8852073,20 L22.1148931,20 C17.0876083,20 13.012028,27.7557819 13.012028,32.8085106 L13.012028,36.4680851 C9.99556609,36.4680851 7.55030896,38.9257181 7.55030896,41.9574468 C7.55030896,44.9891755 9.99556609,47.4468085 13.012028,47.4468085 L13.012028,49.2765957 C13.012028,53.7087979 15.663465,57.7061968 19.7340387,59.4108723 L27.5766121,62.6953404 L27.5766121,68.596633 C27.5766121,70.1718511 26.573704,71.570266 25.0869785,72.0684255 L17.3265585,74.9382181 C17.0439145,74.3805904 16.3755366,74.1187021 15.7922706,74.4116968 L12.21621,76.2087766 C9.16447451,77.742367 7.31158632,80.3534734 6.91288083,83.3591277 L5.69901378,92.5085213 C5.12325756,92.4348723 4.56365893,92.7889362 4.39571107,93.3664628 L4.04843677,94.562 C3.86251075,95.2021968 4.22821835,95.8723564 4.86496376,96.0592234 L7.55030896,96.8462606 L7.55030896,102.340426 C7.55030896,104.361426 9.1806321,106 11.191455,106 L18.473747,106 L58.5263534,106 L65.8086454,106 C67.8194683,106 69.4497915,104.361426 69.4497915,102.340426 L69.4497915,96.8462606 L72.1349091,96.0589947 C72.7716545,95.8723564 73.1373621,95.2019681 72.9516637,94.5617713 Z" id="Path" fill="#FFD7A3"></path>
                        <path d="M49,62 L27.7184825,62.0002427 L27.7184825,68.2615318 C27.7184825,69.6430875 27.0496665,70.8950541 26,71.5864386 C40.8360995,74.3925037 49,62 49,62 Z" id="Path" fill="#FDC88E"></path>
                        <path d="M64.5294118,36.56 L64.5294118,32.88 C64.5294118,27.79907 60.4472132,20 55.4117647,20 L22.5882353,20 C17.5527868,20 13.4705882,27.79907 13.4705882,32.88 L13.4705882,36.56 C10.4492279,36.56 8,39.03135 8,42.08 C8,45.12865 10.4492279,47.6 13.4705882,47.6 L13.4705882,49.44 C13.4705882,53.89694 16.1263309,57.91665 20.2035147,59.63084 L31.9860221,64.58458 C34.2084485,65.51907 36.5922574,66 38.9997721,66 C41.4072868,66 43.7908676,65.51884 46.0132941,64.58458 L57.7964853,59.63061 C61.8736691,57.91665 64.5294118,53.89694 64.5294118,49.44 L64.5294118,47.6 C67.5507721,47.6 70,45.12865 70,42.08 C70,39.03135 67.5507721,36.56 64.5294118,36.56 Z" id="Path" fill="#FFE1B2"></path>
                        <path d="M51,44 C49.9,44 49,43.1 49,42 L49,40 C49,38.9 49.9,38 51,38 C52.1,38 53,38.9 53,40 L53,42 C53,43.1 52.09975,44 51,44 Z" id="Path" fill="#623F33"></path>
                        <path d="M38.0000494,57 C34.7999532,57 31.8066269,56.1329666 29.7877516,54.6206128 C28.9660719,54.0052668 28.7523271,52.7723454 29.3123384,51.867658 C29.8703246,50.9639615 30.991022,50.7286239 31.8127018,51.3442176 C33.2276919,52.4037323 35.5408599,53.0366667 38.0000494,53.0366667 C40.4592388,53.0366667 42.7724068,52.4037323 44.187397,51.3442176 C45.0108767,50.7268898 46.1288742,50.9629706 46.6877604,51.867658 C47.2475466,52.7723454 47.0340269,54.0052668 46.2123471,54.6206128 C44.1939218,56.1329666 41.2003706,57 38.0000494,57 Z" id="Path" fill="#E4B07B"></path>
                        <path d="M21.9815296,55.6564048 C20.5100504,54.0678199 19.712564,51.9710432 19.712564,49.7983693 L19.712564,41.9292845 C29.6167864,41.1737408 42.9879066,34.5672483 51,28.2458279 L48.7698531,26 C48.7698531,26 32.652138,36.5158881 12.4482417,36.5158881 L12.4482417,36.5168026 C9.43922321,36.5168026 7,38.9731769 7,42.0033529 C7,45.0335289 9.43922321,47.4899032 12.4482417,47.4899032 L12.4482417,49.3187533 C12.4482417,53.7486855 15.093136,57.7440372 19.1536652,59.4478397 L30.8878158,64.3715614 C31.4621512,64.6125124 32.0482912,64.8200869 32.6419226,65 C27.4558775,61.1795321 24.0039624,57.8400518 21.9815296,55.6564048 Z" id="Path" fill="#FFD7A3"></path>
                        <path d="M71,94.5820235 L69.5482472,83.8659315 C69.1502079,80.9273633 67.2985983,78.3740601 64.6045631,77.0483281 L60.6896015,75.1217793 C60.0264299,74.7953214 59.2521618,75.1691828 59.0574588,75.8735269 C56.5379065,84.9877392 48.0723019,91.690188 38.0134043,91.690188 C27.9522347,91.690188 19.4848126,84.9843852 16.9675323,75.8665952 C16.7739652,75.1658288 16.0037865,74.7939798 15.3440228,75.1186489 L11.7739377,76.8754843 C8.72730152,78.3747309 6.87750943,80.9273633 6.47947016,83.8657079 L5,94.7855007 C9.80146229,96.4128709 18.0207915,98.8447586 18.0207915,98.8447586 L18.0207915,106 L58.0064715,106 L58.0064715,98.8447586 L71,94.5820235 Z" id="Path" fill="#FF6473"></path>
                        <path d="M19,98 C18.888366,95.7596263 18.1633155,93.5948503 16.8536131,91.7932253 L8.27970849,80 C7.86581789,80.8793814 7.57497585,81.8152844 7.44758978,82.7994662 L6,94.0003925 L19,98 Z" id="Path" fill="#F05467"></path>
                        <path d="M4.0468521,93.9137526 C3.86700888,94.5071835 4.2207519,95.1286004 4.83666538,95.3016049 L18,99 L18,97.7319364 C18,96.9307305 17.869245,96.1458498 17.6783954,95.3758102 L5.82327161,92.0450496 C5.20735813,91.8720451 4.56238797,92.2125417 4.38276488,92.8057606 L4.0468521,93.9137526 Z" id="Path" fill="#D4445A"></path>
                        <path d="M58,98 C58.111634,95.7596263 58.8366845,93.5948503 60.1463869,91.7932253 L68.7202915,80 C69.1341821,80.8793814 69.4250241,81.8152844 69.5524102,82.7994662 L71,94.0003925 L58,98 Z" id="Path" fill="#F05467"></path>
                        <path d="M72.9531486,93.9137526 C73.132989,94.5071835 72.7792516,95.1286004 72.1633478,95.3016049 L59,99 L59,97.7319364 C59,96.9307305 59.130753,96.1458498 59.3215995,95.3758102 L71.1765369,92.0450496 C71.7924407,91.8720451 72.4374007,92.2125417 72.617021,92.8057606 L72.9531486,93.9137526 Z" id="Path" fill="#D4445A"></path>
                        <path d="M26,44 C24.9,44 24,43.1 24,42 L24,40 C24,38.9 24.9,38 26,38 C27.1,38 28,38.9 28,40 L28,42 C28,43.1 27.1,44 26,44 Z" id="Path" fill="#623F33"></path>
                        <path d="M9.00028733,25.6404648 L9.06212769,37.7338802 C26.3547552,37.7338802 40.6921004,32.3588517 50.0984781,27.518797 C47.1757192,30.6728184 42.7790982,34.9660515 36.5465056,40 C36.5465056,40 52.8609101,33.5465938 62,25.531784 L62,25.5311005 C62,13.6397813 52.3096147,4 40.3558721,4 L30.6439572,4 C18.6473843,4 8.93913408,13.7067669 9.00028733,25.6404648 Z" id="Path" fill="#E69F5F"></path>
                        <path d="M47,5.05426891 C44.8984013,4.37063603 42.6565282,4 40.3279275,4 L30.6247381,4 C18.6387146,4 8.93941546,13.7830459 9.00028494,25.8110348 L9.06206974,38 C14.1000486,38 18.8849385,37.5370494 23.3718884,36.7633984 C39.9098503,24.0538434 46.9732266,5.1263753 47,5.05426891 Z" id="Path" fill="#E09156"></path>
                    </g>
                    <g id="boy-18" transform="translate(288.000000, 180.000000)">
                        <path d="M75.9099618,105.77651 L73.3075669,84.9575924 C73.0301911,82.7378599 71.5026879,80.8746497 69.3804968,80.167172 L57.595172,76.2386497 C56.5960382,75.9056051 55.5448662,76.4327643 55.1801146,77.3699363 L52.2659745,76.3986369 C50.6844968,75.8714777 49.6180764,74.3916561 49.6180764,72.7247389 L49.6180764,66.4796688 L57.9589554,63.004242 C62.288293,61.2005732 65.1082803,56.9704713 65.1082803,52.2802548 L65.1082803,50.343949 C68.3164968,50.343949 70.9171975,47.7432484 70.9171975,44.5350318 C70.9171975,43.0041401 70.3239618,41.6124204 69.356051,40.5748025 C70.331949,35.0466497 72.7491847,19.4518854 70.9171975,9.68152866 C69.8280255,3.87261146 67.044586,0 67.044586,0 C67.044586,0 52.522293,0.484076433 41.8726115,3.87261146 L39.9363057,0 C39.9363057,0 18.5159236,0 12.8297197,9.67983439 L12.8280255,9.68152866 C12.8280255,9.68152866 3.14649682,9.60092994 3.14649682,21.2993631 C3.14649682,25.5810191 5.5346879,36.2725732 6.55996178,40.666051 C5.64191083,41.6935032 5.08280255,43.0486752 5.08280255,44.5350318 C5.08280255,47.7432484 7.68350318,50.343949 10.8917197,50.343949 L10.8917197,52.2802548 C10.8917197,56.9704713 13.711707,61.2005732 18.0410446,63.0044841 L26.3821656,66.4799108 L26.3821656,72.7247389 C26.3821656,74.3916561 25.3155032,75.8714777 23.7342675,76.3986369 L20.8201274,77.3699363 C20.4551338,76.4330064 19.4042038,75.9056051 18.4050701,76.2386497 L6.61974522,80.167172 C4.49755414,80.8746497 2.97005096,82.7378599 2.69267516,84.9575924 L0.0902802548,105.77651 C-0.343210191,109.243465 2.36011465,112.305732 5.85417834,112.305732 L70.1460637,112.305732 C73.6401274,112.305732 76.3434522,109.243465 75.9099618,105.77651 Z" id="Path" fill="#F6B47B"></path>
                        <path d="M19.6050955,112.305732 L56.3949045,112.305732 L56.3949045,76.5963822 C55.5676178,76.8459236 54.8301274,77.3684841 54.3448408,78.1330828 C50.9124968,83.5411847 44.8796943,87.133758 38,87.133758 C31.1203057,87.133758 25.0875032,83.5409427 21.6551592,78.1328408 C21.1698726,77.368242 20.4323822,76.8456815 19.6050955,76.5963822 L19.6050955,112.305732 Z" id="Path" fill="#9BCE7A"></path>
                        <path d="M26.3821656,66.3184713 L26.3821656,72.7247389 C26.3821656,74.1026624 25.6519363,75.3513376 24.5058854,76.0409045 C39.9365478,78.7069554 48.7564204,67.3756943 49.5578089,66.3182293 L26.3821656,66.3182293 L26.3821656,66.3184713 Z" id="Path" fill="#E2A071"></path>
                        <path d="M7.01910828,42.5987261 L67.044586,0 C67.044586,0 69.8280255,3.87261146 70.9171975,9.68152866 C73.1742038,21.7192994 68.9808917,42.5987261 68.9808917,42.5987261 L7.01910828,42.5987261 Z" id="Path" fill="#6E4439"></path>
                        <path d="M39.9363057,0 C39.9363057,0 18.5159236,0 12.8297197,9.67983439 L12.8280255,9.68152866 C12.8280255,9.68152866 3.14649682,9.60092994 3.14649682,21.2993631 C3.14649682,26.7515159 7.01910828,42.5987261 7.01910828,42.5987261 C7.01910828,42.5987261 48.2466879,24.2844204 67.044586,0 C67.044586,0 52.522293,0.484076433 41.8726115,3.87261146 L39.9363057,0 Z" id="Path" fill="#5E342E"></path>
                        <path d="M65.1082803,38.7261146 L65.1082803,34.8535032 C65.1082803,29.5063949 60.7736178,25.1719745 55.4267516,25.1719745 L20.5732484,25.1719745 C15.2263822,25.1719745 10.8917197,29.5066369 10.8917197,34.8535032 L10.8917197,38.7261146 C7.68350318,38.7261146 5.08280255,41.3268153 5.08280255,44.5350318 C5.08280255,47.7432484 7.68350318,50.343949 10.8917197,50.343949 L10.8917197,52.2802548 C10.8917197,56.9704713 13.711707,61.2005732 18.0410446,63.0044841 L30.552242,68.2175032 C32.9121146,69.2009045 35.4433503,69.7070064 37.999758,69.7070064 C40.5561656,69.7070064 43.0871592,69.2009045 45.4470318,68.2175032 L57.9589554,63.004242 C62.288293,61.2005732 65.1082803,56.9704713 65.1082803,52.2802548 L65.1082803,50.343949 C68.3164968,50.343949 70.9171975,47.7432484 70.9171975,44.5350318 C70.9171975,41.3268153 68.3164968,38.7261146 65.1082803,38.7261146 Z" id="Path" fill="#FDC88E"></path>
                        <path d="M24.4458599,46.4713376 C23.3808917,46.4713376 22.5095541,45.6 22.5095541,44.5350318 L22.5095541,42.5987261 C22.5095541,41.533758 23.3808917,40.6624204 24.4458599,40.6624204 C25.510828,40.6624204 26.3821656,41.533758 26.3821656,42.5987261 L26.3821656,44.5350318 C26.3821656,45.6 25.510828,46.4713376 24.4458599,46.4713376 Z" id="Path" fill="#623F33"></path>
                        <path d="M51.5541401,46.4713376 C50.489172,46.4713376 49.6178344,45.6 49.6178344,44.5350318 L49.6178344,42.5987261 C49.6178344,41.533758 50.489172,40.6624204 51.5541401,40.6624204 C52.6191083,40.6624204 53.4904459,41.533758 53.4904459,42.5987261 L53.4904459,44.5350318 C53.4904459,45.6 52.6191083,46.4713376 51.5541401,46.4713376 Z" id="Path" fill="#623F33"></path>
                        <path d="M38,60.0784841 C34.5574904,60.0784841 31.337414,59.2313503 29.1656051,57.753707 C28.2816815,57.1524841 28.0517452,55.9478599 28.6541783,55.0639363 C29.2544331,54.1809809 30.4600255,53.9510446 31.343949,54.5525096 C32.8661274,55.587707 35.3545223,56.2061146 38,56.2061146 C40.6454777,56.2061146 43.1338726,55.587707 44.656051,54.5525096 C45.5419108,53.9493503 46.7445987,54.1800127 47.3458217,55.0639363 C47.9480127,55.9478599 47.7183185,57.1524841 46.8343949,57.753707 C44.6630701,59.2313503 41.4425096,60.0784841 38,60.0784841 Z" id="Path" fill="#E2A071"></path>
                        <path d="M55.4267516,30.9808917 L55.4267516,25.1719745 L20.5732484,25.1719745 C19.9081274,25.1719745 19.2614013,25.2424076 18.6369427,25.3738344 L18.6369427,25.3672994 C14.218051,26.264535 10.8917197,30.1700637 10.8917197,34.8537452 L10.8917197,38.7263567 C7.68350318,38.7263567 5.08280255,41.3270573 5.08280255,44.5352739 C5.08280255,47.7434904 7.68350318,50.3441911 10.8917197,50.3441911 L10.8917197,52.2804968 C10.8917197,56.9707134 13.711707,61.2008153 18.0410446,63.0047261 L30.552,68.2177452 C31.1643567,68.4728535 31.7892994,68.6926242 32.4222293,68.8831083 C26.8931083,64.8384076 23.2126752,61.3024713 21.0561146,58.9905223 C19.4872229,57.3083567 18.6369427,55.0886242 18.6369427,52.788293 L18.6369427,32.7296178 C24.7387261,29.9089045 37.7422293,25.8467771 55.4267516,30.9808917 Z" id="Path" fill="#F6B47B"></path>
                        <path d="M58.7722038,76.6309936 C57.1263439,76.082293 55.2747516,76.6682675 54.3450828,78.1330828 C50.9124968,83.5411847 44.8796943,87.133758 38,87.133758 C31.1203057,87.133758 25.0875032,83.5409427 21.6551592,78.1328408 C20.7254904,76.6680255 18.8738981,76.082051 17.2280382,76.6307516 L16.6021274,76.8393885 C20.1354013,85.1659873 28.3852739,91.0063694 38,91.0063694 C47.6147261,91.0063694 55.8648408,85.1657452 59.3978726,76.8396306 L58.7722038,76.6309936 Z" id="Path" fill="#8ABE69"></path>
                        <path d="M26.3821656,112.306217 L20.9297707,77.7738981 C20.7431592,76.5920255 19.5399873,75.860586 18.404828,76.2388917 L6.61950318,80.167414 C4.4973121,80.8748917 2.96980892,82.7381019 2.69243312,84.9578344 L0.0900382166,105.776752 C-0.343452229,109.243707 2.36011465,112.306217 5.85417834,112.306217 L26.3821656,112.306217 Z" id="Path" fill="#43A0C5"></path>
                        <path d="M49.6178344,112.306217 L55.0702293,77.7738981 C55.2568408,76.5920255 56.4600127,75.860586 57.595172,76.2388917 L69.3804968,80.167414 C71.5026879,80.8748917 73.0301911,82.7381019 73.3075669,84.9578344 L75.9099618,105.776752 C76.3434522,109.243707 73.6398854,112.306217 70.1458217,112.306217 L49.6178344,112.306217 Z" id="Path" fill="#43A0C5"></path>
                        <path d="M72.1394904,82.1409936 C72.7591083,82.9460127 73.1766242,83.9090828 73.3078089,84.9573503 L75.9102038,105.776268 C76.3436943,109.243465 73.6401274,112.305732 70.1460637,112.305732 L59.2993631,112.305732 L59.2993631,101.180446 C59.2993631,98.3662675 60.3207643,95.6479363 62.1738089,93.5301019 L72.1394904,82.1409936 Z" id="Path" fill="#2C8CB3"></path>
                        <path d="M75.7461019,104.461758 C71.9364204,103.975261 68.9808917,100.757121 68.9808917,96.8152866 C68.9808917,93.5409936 71.0193376,90.7563439 73.890879,89.623121 L75.7461019,104.461758 Z" id="Path" fill="#FFC84A"></path>
                        <path d="M41.3853885,24.6878981 C47.3090318,25.7468153 53.8709299,28.6870955 57.3630573,34.8535032 C57.3630573,34.8535032 57.9405605,29.2023949 56.562879,24.6878981 L41.3853885,24.6878981 Z" id="Path" fill="#6E4439"></path>
                        <path d="M3.86075159,82.1409936 C3.24113376,82.9460127 2.82361783,83.9090828 2.69243312,84.9573503 L0.0900382166,105.776268 C-0.343452229,109.243465 2.36011465,112.305732 5.85417834,112.305732 L16.7006369,112.305732 L16.7006369,101.180446 C16.7006369,98.3662675 15.6792357,95.6479363 13.8261911,93.5301019 L3.86075159,82.1409936 Z" id="Path" fill="#2C8CB3"></path>
                    </g>
                    <g id="girl-13" transform="translate(431.000000, 0.000000)">
                        <path d="M38,0 C26.2558625,0 0,6.23105 0,39.9 C0,47.8959125 1.6831625,57.2071 5.7,68.4 C27.06835,72.1707875 48.9318875,72.1707875 70.3,68.4 C74.3168375,57.2071 76,47.895675 76,39.9 C76,6.23105 49.7441375,0 38,0 Z" id="Path" fill="#9D6E48"></path>
                        <path d="M0,39.9 C0,47.8959125 1.6831625,57.2071 5.7,68.4 C15.2235125,70.08055 24.8460625,70.9688 34.4785875,71.1514375 C34.4785875,71.1514375 19.3959125,35.2290875 27.5329,1.393175 C15.110225,4.611775 0,14.355925 0,39.9 Z" id="Path" fill="#8D5F3D"></path>
                        <path d="M73.239775,103.746887 L70.965475,86.69035 C70.549375,83.569125 68.61375,80.856875 65.7972375,79.4487375 L61.7046375,77.4024375 C61.094975,77.0974875 60.3960125,77.368 60.0977125,77.9463125 L51.99825,74.9661625 C50.4466625,74.4488875 49.4,72.9968125 49.4,71.36115 L49.4,65.233175 L57.5844875,61.8229125 C61.8328875,60.0530625 64.6,55.902275 64.6,51.3 C67.7480625,51.3 70.3,48.7480625 70.3,45.6 C70.3,42.4519375 67.7480625,39.9 64.6,39.9 L64.6,34.2 C64.6,28.95315 60.3466125,24.7 55.1,24.7 L20.9,24.7 C15.6533875,24.7 11.4,28.9533875 11.4,34.2 L11.4,39.9 C8.2519375,39.9 5.7,42.4519375 5.7,45.6 C5.7,48.7480625 8.2519375,51.3 11.4,51.3 C11.4,55.902275 14.1671125,60.0530625 18.415275,61.82315 L26.6,65.2334125 L26.6,71.36115 C26.6,72.9968125 25.5533375,74.4488875 24.00175,74.9661625 L15.9027625,77.946075 C15.6077875,77.36705 14.9100125,77.0951125 14.3015375,77.39935 L10.5694625,79.2653875 C7.3845875,80.857825 5.4508625,83.569125 5.0347625,86.6901125 L4.9426125,87.3807625 L4.9426125,87.381 L2.7604625,103.74665 C2.3049375,107.1638 4.963275,110.2 8.4105875,110.2 L67.58965,110.2 C71.0369625,110.2 73.6953,107.1638 73.239775,103.746887 Z" id="Path" fill="#FFD7A3"></path>
                        <path d="M26.6,65.075 L26.6,71.36115 C26.6,72.7132375 25.8834625,73.9385 24.7589,74.6151375 C39.9002375,77.2312 48.5545,66.1124 49.3411,65.0747625 L26.6,65.0747625 L26.6,65.075 Z" id="Path" fill="#FDC88E"></path>
                        <path d="M64.6,39.9 L64.6,34.2 C64.6,28.95315 60.3466125,24.7 55.1,24.7 L20.9,24.7 C15.6533875,24.7 11.4,28.9533875 11.4,34.2 L11.4,39.9 C8.2519375,39.9 5.7,42.4519375 5.7,45.6 C5.7,48.7480625 8.2519375,51.3 11.4,51.3 C11.4,55.902275 14.1671125,60.0530625 18.415275,61.82315 L30.6918875,66.938425 C33.0075125,67.9033875 35.4912875,68.4 37.9997625,68.4 C40.5082375,68.4 42.991775,67.9033875 45.3074,66.938425 L57.584725,61.8229125 C61.8328875,60.0530625 64.6,55.902275 64.6,51.3 C67.7480625,51.3 70.3,48.7480625 70.3,45.6 C70.3,42.4519375 67.7480625,39.9 64.6,39.9 Z" id="Path" fill="#FFE1B2"></path>
                        <path d="M24.7,45.6 C23.655,45.6 22.8,44.745 22.8,43.7 L22.8,41.8 C22.8,40.755 23.655,39.9 24.7,39.9 C25.745,39.9 26.6,40.755 26.6,41.8 L26.6,43.7 C26.6,44.745 25.745,45.6 24.7,45.6 Z" id="Path" fill="#623F33"></path>
                        <path d="M51.3,45.6 C50.255,45.6 49.4,44.745 49.4,43.7 L49.4,41.8 C49.4,40.755 50.255,39.9 51.3,39.9 C52.345,39.9 53.2,40.755 53.2,41.8 L53.2,43.7 C53.2,44.745 52.345,45.6 51.3,45.6 Z" id="Path" fill="#623F33"></path>
                        <path d="M38,58.9520125 C34.6220375,58.9520125 31.4623375,58.1207625 29.33125,56.670825 C28.4639,56.080875 28.238275,54.8988375 28.8294125,54.0314875 C29.4184125,53.1650875 30.6014,52.9394625 31.46875,53.52965 C32.9623875,54.5454375 35.404125,55.15225 38,55.15225 C40.595875,55.15225 43.0376125,54.5454375 44.53125,53.52965 C45.4005,52.9378 46.5806375,53.1641375 47.1705875,54.0314875 C47.7614875,54.8988375 47.5361,56.080875 46.66875,56.670825 C44.5379,58.1207625 41.3779625,58.9520125 38,58.9520125 Z" id="Path" fill="#E4B07B"></path>
                        <path d="M11.4,39.9 C8.2519375,39.9 5.7,42.4519375 5.7,45.6 C5.7,48.7480625 8.2519375,51.3 11.4,51.3 C11.4,55.902275 14.1671125,60.0530625 18.415275,61.82315 L30.69165,66.938425 C31.292525,67.18875 31.90575,67.4044 32.5268125,67.5913125 C27.1013625,63.62245 23.4899375,60.1528125 21.3738125,57.8842125 C19.8343375,56.2335875 19,54.055475 19,51.798275 L19,38.0425125 C24.8512875,38.2268125 37.464675,38.7079875 48.2125,32.962625 L48.2125,25.65 L11.4,25.65 L11.4,39.9 Z" id="Path" fill="#FFD7A3"></path>
                        <path d="M65.7972375,79.4487375 L61.7046375,77.4024375 C61.0111375,77.0556875 60.201975,77.4527875 59.9984375,78.2009125 C57.3645625,87.88165 48.5148375,95.0007125 37.9997625,95.0007125 C27.482075,95.0007125 18.63045,87.8780875 15.99895,78.19355 C15.7966,77.449225 14.991475,77.0542625 14.301775,77.3991125 L10.5697,79.26515 C7.384825,80.8575875 5.4511,83.5688875 5.035,86.689875 L2.7607,103.746413 C2.305175,107.163563 4.9635125,110.199763 8.4105875,110.199763 L67.5898875,110.199763 C71.0372,110.199763 73.6955375,107.163563 73.239775,103.746413 L70.965475,86.689875 C70.549375,83.569125 68.61375,80.856875 65.7972375,79.4487375 Z" id="Path" fill="#8DB9E2"></path>
                        <path d="M5.9002125,83.86695 C5.469625,84.753775 5.16705,85.6976 5.034525,86.6901125 L2.760225,103.74665 C2.3047,107.1638 4.9630375,110.2 8.41035,110.2 L17.1,110.2 L17.1,102.6 C17.1,100.133325 16.2998625,97.7333875 14.82,95.76 L5.9002125,83.86695 Z" id="Path" fill="#6AA2DE"></path>
                        <path d="M70.0997875,83.86695 C70.530375,84.753775 70.83295,85.6976 70.965475,86.6901125 L73.239775,103.74665 C73.6953,107.1638 71.0369625,110.2 67.58965,110.2 L58.9,110.2 L58.9,102.6 C58.9,100.133325 59.6999,97.7333875 61.18,95.76 L70.0997875,83.86695 Z" id="Path" fill="#6AA2DE"></path>
                        <path d="M10.6875,24.9375 L10.6875,32.3 C10.6875,32.3 18.6131125,35.3875 32.1472875,34.2 L34.0981125,26.6 L36.0489375,34.2 C41.413825,33.725 43.852475,32.3 43.852475,32.3 L45.8033,28.5 L47.754125,34.2 C47.754125,34.2 54.7449375,34.1209125 59.45955,32.3 L61.410375,28.5 L65.3125,38 L65.3125,24.4625 C65.3125,24.4625 57.26505,13.0625 37.2685,13.0625 C17.353175,13.0625 10.6875,24.9375 10.6875,24.9375 Z" id="Path" fill="#9D6E48"></path>
                        <path d="M31.20845,13.4565125 C15.976625,15.514925 10.6875,24.9375 10.6875,24.9375 L10.6875,32.3 C10.6875,32.3 15.664075,34.225175 24.4380375,34.444625 C24.4380375,34.444625 24.3544375,21.9091375 31.20845,13.4565125 Z" id="Path" fill="#8D5F3D"></path>
                        <path d="M64.5498875,26.6 C63.9217,26.6 63.3077625,26.2881625 62.9448625,25.7205375 C58.94085,19.4286875 48.9166875,15.2 38,15.2 C27.0833125,15.2 17.05915,19.4286875 13.0551375,25.7205375 C12.492975,26.6038 11.3166375,26.863625 10.432425,26.303125 C9.54655,25.7390625 9.285775,24.564625 9.8488875,23.6794625 C14.5960375,16.2205375 25.6464375,11.4 38,11.4 C50.3535625,11.4 61.4039625,16.2205375 66.1511125,23.6794625 C66.714225,24.564625 66.45345,25.7390625 65.567575,26.303125 C65.252175,26.503575 64.898775,26.6 64.5498875,26.6 Z" id="Path" fill="#FFC84A"></path>
                        <path d="M65.3125,37.05 L45.6,37.05 C44.0284625,37.05 42.75,38.3284625 42.75,39.9 L42.75,40.0026 C41.542075,38.768075 39.85915,38 38,38 C36.14085,38 34.457925,38.768075 33.25,40.0026 L33.25,39.9 C33.25,38.3284625 31.9715375,37.05 30.4,37.05 L10.6875,37.05 C10.1628625,37.05 9.7375,37.4753625 9.7375,38 C9.7375,38.5246375 10.1628625,38.95 10.6875,38.95 L16.31625,38.95 C16.2105625,39.2475875 16.15,39.56655 16.15,39.9 L16.15,45.6 C16.15,47.1715375 17.4284625,48.45 19,48.45 L30.4,48.45 C31.9715375,48.45 33.25,47.1715375 33.25,45.6 L33.25,44.65 C33.25,42.0310875 35.3810875,39.9 38,39.9 C40.6189125,39.9 42.75,42.0310875 42.75,44.65 L42.75,45.6 C42.75,47.1715375 44.0284625,48.45 45.6,48.45 L57,48.45 C58.5715375,48.45 59.85,47.1715375 59.85,45.6 L59.85,39.9 C59.85,39.56655 59.7894375,39.2475875 59.68375,38.95 L65.3125,38.95 C65.8371375,38.95 66.2625,38.5246375 66.2625,38 C66.2625,37.4753625 65.8371375,37.05 65.3125,37.05 Z M31.35,45.6 C31.35,46.1232125 30.9241625,46.55 30.4,46.55 L19,46.55 C18.4758375,46.55 18.05,46.1232125 18.05,45.6 L18.05,39.9 C18.05,39.3767875 18.4758375,38.95 19,38.95 L30.4,38.95 C30.9241625,38.95 31.35,39.3767875 31.35,39.9 L31.35,45.6 Z M57.95,39.9 L57.95,45.6 C57.95,46.1232125 57.5241625,46.55 57,46.55 L45.6,46.55 C45.0758375,46.55 44.65,46.1232125 44.65,45.6 L44.65,39.9 C44.65,39.3767875 45.0758375,38.95 45.6,38.95 L57,38.95 C57.5241625,38.95 57.95,39.3767875 57.95,39.9 Z" id="Shape" fill="#734A3E" fill-rule="nonzero"></path>
                    </g>
                </g>
                <rect id="Rectangle" stroke="#979797" fill="#17AD8D" fill-rule="nonzero" x="3.5" y="258.5" width="72" height="316" rx="8"></rect>
                <rect id="Rectangle-Copy" stroke="#979797" fill="#B85346" fill-rule="nonzero" x="146.5" y="221.5" width="72" height="353" rx="8"></rect>
                <rect id="Rectangle-Copy-2" stroke="#979797" fill="#079AE0" fill-rule="nonzero" x="289.5" y="307.5" width="72" height="267" rx="8"></rect>
                <rect id="Rectangle-Copy-3" stroke="#979797" fill="#FAC314" fill-rule="nonzero" x="432.5" y="123.5" width="72" height="451" rx="8"></rect>
            </g>
        </g>
    </g>
</svg>